<?xml version="1.0" encoding="UTF-8" standalone="no"?>
<!-- Created with Inkscape (http://www.inkscape.org/) -->

<svg
   version="1.1"
   id="svg1"
   width="178.88223"
   height="98.737549"
   viewBox="0 0 178.88223 98.737549"
   xmlns="http://www.w3.org/2000/svg"
   xmlns:svg="http://www.w3.org/2000/svg">
  <defs
     id="defs1" />
  <g
     id="g1"
     transform="translate(-10.039966,-43.220062)">
    <g
       id="g2"
       transform="translate(3.7974684,41.139242)">
      <path
         style="fill:#aade87"
         d="m 6.242497,46.97959 9.363745,9.0036"
         id="path4" />
      <path
         style="fill:#aade87"
         d="M 44.057623,57.60384 16.986795,41.33733"
         id="path8" />
      <path
         style="opacity:1;fill:#f82f00;fill-opacity:1"
         d="m 15.863841,48.32113 c 0,0 -0.770713,-8.92742 11.046885,-11.68914 11.817598,-2.76173 14.129736,3.33975 14.129736,3.33975 0,0 0.965418,2.15893 0,4.56005 -0.274692,0.6832 -0.931374,1.91266 -3.355077,2.89693 -0.840282,0.34123 -1.892955,0.653 -3.215733,0.90231 -1.64202,0.30948 0.250952,-1.18112 1.328094,-3.08127 0.971338,-1.71349 1.190644,-3.78957 -0.888361,-4.66043 -5.002961,-2.09567 -9.87604,2.23308 -9.619136,5.50861 0.256904,3.27554 7.190804,6.63401 12.089327,12.88472 3.596711,4.58955 0.01278,10.59858 -6.417835,14.22372 -2.449213,1.3807 -5.805073,2.50476 -8.12701,2.83574 -4.0559,0.57815 -7.934281,0.0247 -10.374872,-1.25985 -2.440591,-1.28452 -4.3476233,-3.5769 -3.3842322,-6.98088 0.9633912,-3.40399 3.7053622,-6.82772 10.8344562,-6.37814 7.129095,0.44958 -1.991008,0.19268 -2.247912,5.84457 -0.256904,5.6519 6.357306,4.00624 7.657729,3.40892 0.836253,-0.38411 4.053914,-1.85357 4.188435,-4.73841 0.06544,-1.4033 -0.296938,-3.56394 -2.597609,-5.28579 C 19.621041,55.19685 15.863841,53.78035 15.863841,48.32113 Z"
         id="path16" />
      <g
         id="g24"
         transform="translate(0,-52)">
        <g
           id="g19">
          <path
             style="fill:#aade87"
             d="m 56.782713,101.80072 7.983193,9.2437"
             id="path9" />
          <g
             id="g18">
            <path
               style="opacity:1;fill:#f82f00;fill-opacity:1"
               d="m 44.18754,93.577392 c 0,0 0.578037,9.890808 -2.183687,15.157358 -1.339395,2.5542 -1.585003,6.3718 -0.775401,9.2783 0.730496,2.62251 2.355878,4.44357 4.179383,4.97989 4.367373,1.28452 9.120103,-1.09185 13.487476,-9.44124 4.367374,-8.34939 12.395633,-14.771995 7.450225,-15.928065 -4.945408,-1.156069 -6.609733,2.455475 -7.000642,3.147075 -0.834939,1.4772 -1.79833,13.48748 -8.220937,16.2492 -2.431924,1.04573 -1.534234,-4.22934 -0.564669,-6.54749 1.12884,-2.69896 2.58187,-6.57837 2.941032,-9.25212 0.578037,-4.303152 2.247913,-7.964038 -1.862556,-9.184333 -4.110469,-1.220296 -7.129094,0.385356 -7.450224,1.541425 z"
               id="path17" />
            <g
               id="g29">
              <path
                 style="opacity:1;fill:#f82f00;fill-opacity:1"
                 d="m 12.212944,152.81837 c 0.939457,-0.41753 8.455114,-18.99791 42.588726,-21.18998 34.133612,-2.19206 29.018789,3.54906 29.018789,3.54906 0,0 -37.382059,7.75055 -46.659708,16.59708 -0.254737,0.2429 -0.805069,-1.57916 -3.016583,-2.963 -2.823099,-1.76654 -13.148817,-2.90398 -21.931224,4.00684 z"
                 id="path25" />
              <path
                 style="opacity:1;fill:#f82f00;fill-opacity:1"
                 d="m 178.27763,118.8946 c 0,0 7.96916,-3.08483 -0.12853,1.41388 -8.09769,4.49872 -30.84833,7.84062 -38.68895,8.48329 -7.84061,0.64268 -40.102824,3.59897 -43.187656,4.24165 -1.688227,0.35172 -14.138818,2.44216 -14.138818,2.44216 l -27.120823,-3.85604 c 0,0 42.030849,-4.24165 56.298197,-5.14139 14.26736,-0.89974 44.47302,-3.47044 47.94345,-4.24165 0.88723,-0.19716 15.80977,-1.79948 19.02313,-3.3419 z"
                 id="path26" />
            </g>
            <path
               style="opacity:1;fill:#f82f00"
               d="m 124.32735,83.96861 c 0,0 3.02691,-0.672646 0.89687,1.457399 -2.13005,2.130045 -5.26932,4.764888 -5.26932,4.764888 0,0 -2.46536,2.186161 -3.8114,0.616278 -1.8067,-2.107151 -3.02691,-4.147982 -3.02691,-4.147982 0,0 -1.4574,-1.569507 1.00897,-1.569507 2.46637,0 9.19283,-0.560538 10.20179,-1.121076 z"
               id="path1" />
          </g>
          <path
             style="opacity:1;fill:#f82f00;fill-opacity:1"
             d="m 67.491949,98.125819 c 0,0 2.257569,1.424598 0.844596,5.021261 -1.412974,3.59666 -3.018626,10.53307 -0.899165,12.26718 2.11946,1.7341 7.000642,-7.386 7.707129,-14.38664 0.26546,-2.630466 -0.107583,-3.366566 -0.326951,-4.220939 -0.364452,-1.41943 -0.869978,-1.921784 -1.471379,-2.843932 -0.963391,-1.4772 1.541425,-4.560052 5.587668,-3.917791 4.046243,0.642261 4.94121,6.462092 2.890174,12.074502 -1.554238,4.25298 -3.717662,9.42705 -7.46828,13.8911 -1.569507,1.86805 -3.386467,3.55553 -5.698066,4.86291 -7.835581,4.4316 -9.955042,-5.45921 -9.762364,-7.57867 0.192679,-2.11946 6.999424,-16.286046 8.596638,-15.168981 z"
             id="path18" />
        </g>
      </g>
      <path
         style="opacity:1;fill:#f82f00;fill-opacity:1"
         d="m 86.482213,43.33597 c 0,0 -9.011857,21.89723 -2.529644,25.53359 C 90.434783,72.50593 100,62.38735 100.55336,58.51383 c 0.55336,-3.87351 -3.320158,4.50594 -7.351779,5.13835 -1.754834,0.27527 -2.371422,-0.004 -2.364764,-0.94746 0.0086,-1.22458 1.066415,-3.56853 2.048558,-7.27389 1.845003,-6.96069 4.189724,-11.62055 2.529645,-13.12253 -1.660079,-1.50198 -8.221344,-1.58103 -8.932807,1.02767 z"
         id="path19" />
      <path
         style="opacity:1;fill:#f82f00;fill-opacity:1"
         d="m 89.09091,33.8498 c 0,0 -1.739131,5.77075 3.952568,4.82214 5.6917,-0.94862 8.932802,-5.92886 7.509882,-9.40712 -1.422925,-3.47826 -9.72332,-0.71146 -11.46245,4.58498 z"
         id="path20" />
      <path
         style="opacity:1;fill:#158500;fill-opacity:1"
         d="m 110.04878,72.09756 c 0,0 22.43902,-3.31708 31.80488,-16.68293 7.81561,-11.15351 8.66903,-23.37656 4.50586,-31.25475 -0.99283,-1.8788 -4.06107,-4.86298 -6.06683,-5.6233 -9.15045,-3.46862 -1.68425,-0.79159 1.75609,3.70732 3.80488,4.97561 4.39025,18.34147 -3.21951,28.58537 -7.60975,10.2439 -21.7561,20.39024 -28.78049,21.26829 z"
         id="path29" />
      <path
         style="opacity:1;fill:#f82f00;fill-opacity:1"
         d="m 178.26087,36.69565 c 0,0 -13.04646,-0.0975 -18.10276,3.08301 -3.49302,2.1972 -11.93676,4.66403 -14.1502,2.84585 -1.271,-1.04404 -1.94508,-2.54247 -1.20854,-3.78984 0.44229,-0.74905 1.49434,-1.40757 2.94767,-1.82281 3.87351,-1.10672 14.09412,-3.73111 16.04743,-4.03162 3.083,-0.47431 6.64031,-0.86957 9.96047,0 3.32016,0.86956 5.77075,3.32016 4.50593,3.71541 z"
         id="path22" />
      <path
         style="opacity:1;fill:#f82f00;fill-opacity:1"
         d="m 167.43083,41.83399 c 0,0 0.71146,-3.39921 3.083,-3.32016 3.0904,0.10302 8.69566,-1.02766 7.19368,2.37154 -1.50198,3.39921 -3.89803,13.81432 -3.95257,15.17787 -0.0791,1.97629 -0.47692,4.1167 3.47826,3.24111 2.25824,-0.49993 4.61024,-2.58063 5.70271,-4.38842 2.1705,-3.59168 2.50221,-3.34292 1.95936,-0.4009 -1.72479,9.34771 -16.50994,15.53238 -19.99408,6.37035 -2.13438,-5.61265 2.52964,-19.05139 2.52964,-19.05139 z"
         id="path23" />
      <path
         style="opacity:1;fill:#f82f00;fill-opacity:1"
         d="m 172.41107,28.79051 c 0,0 1.50198,3.79447 6.08696,2.84585 4.58498,-0.94861 4.78609,-4.45587 4.58498,-6.32411 -0.20525,-1.9067 -3.2411,-4.11067 -6.87747,-2.52964 -3.63636,1.58103 -4.34783,4.90118 -3.79447,6.0079 z"
         id="path24" />
      <path
         style="opacity:1;fill:#f82f00"
         d="m 124.74804,28.85106 c -3.97536,-3.30347 -6.49496,-6.71892 -6.49496,-6.71892 0,0 -2.29563,-2.35162 -3.69541,0.67189 -1.39978,3.02352 -2.74356,6.55095 -2.74356,6.55095 0,0 -1.39978,2.07167 1.39978,1.95969 2.79955,-0.11198 15.50952,0.83986 11.53415,-2.46361 z"
         id="path2" />
      <path
         style="opacity:1;fill:#f82f00"
         d="m 124.91602,26.49944 c 0,0 2.68756,4.31131 3.52743,0.11198 0.83986,-4.19933 2.29563,-6.27099 2.29563,-6.27099 0,0 3.1355,-3.35947 -2.01568,-3.47145 -5.15117,-0.11198 -8.56663,1.62374 -8.56663,1.62374 0,0 -2.67857,1.00484 -0.11198,2.96753 2.85555,2.18365 4.87123,5.03919 4.87123,5.03919 z"
         id="path3" />
      <path
         style="opacity:1;fill:#f82f00"
         d="m 129.73124,26.94737 c 0,0 -1.7363,4.0262 1.84771,2.40761 3.47144,-1.56775 6.55095,-1.95968 6.55095,-1.95968 0,0 2.18364,-0.11198 1.28779,-2.35163 -1.22387,-3.0597 -4.81523,-6.10302 -4.81523,-6.10302 0,0 -1.73572,-1.45577 -2.68757,1.45577 -0.95184,2.91153 -2.18365,6.55095 -2.18365,6.55095 z"
         id="path5" />
      <path
         style="opacity:1;fill:#f82f00"
         d="m 131.74693,32.43449 c 0,0 -2.40762,-0.72788 -0.50393,-1.67973 1.9037,-0.95185 5.99104,-2.07167 5.99104,-2.07167 0,0 3.02352,-1.06383 2.35163,1.62374 -0.6719,2.68757 -0.95185,4.64726 -0.95185,4.64726 0,0 -0.0909,2.12906 -2.57559,0.27995 -2.40761,-1.79171 -4.3113,-2.79955 -4.3113,-2.79955 z"
         id="path6" />
      <path
         style="opacity:1;fill:#158500;fill-opacity:1"
         d="m 132.92273,15.46921 c 0,0 -1.00784,2.4636 1.84771,1.11982 2.85554,-1.34379 5.43113,-9.23853 5.43113,-9.23853 0,0 1.28779,-1.95968 -2.01568,-2.57558 -3.30347,-0.6159 -3.47144,-0.33595 -3.47144,-0.33595 0,0 -1.95969,0 -0.89586,1.79171 1.06383,1.79172 -0.27996,8.17469 -0.89586,9.23853 z"
         id="path7" />
      <path
         style="opacity:1;fill:#f82f00"
         d="m 110.58231,11.60582 c 0,0 -1.79172,-0.89585 -2.79956,-1.67973 -0.46981,-0.36541 -2.29563,-1.28779 -2.91153,0.44793 -0.6159,1.73572 2.35162,4.19933 5.71109,1.2318 z"
         id="path11" />
      <path
         style="opacity:1;fill:#f82f00"
         d="m 112.37402,8.80627 c 0,0 -1.17581,-3.07951 -2.46361,-4.92721 -1.28779,-1.8477 -3.24748,-2.29563 -4.31131,-1.2318 -1.06383,1.06383 -1.95968,4.75923 6.77492,6.15901 z"
         id="path12" />
      <path
         style="opacity:1;fill:#f82f00"
         d="m 139.08175,14.29339 c 0,0 4.42329,0.33595 5.03919,-1.8477 0.6159,-2.18365 -3.1355,-1.95969 -5.03919,1.8477 z"
         id="path13" />
      <path
         style="opacity:1;fill:#f82f00"
         d="m 144.4009,15.80515 c 0,0 8.34266,1.62374 9.51847,-2.23964 1.17581,-3.86338 -5.5991,-3.47144 -9.51847,2.23964 z"
         id="path14" />
      <path
         style="opacity:1;fill:#f82f00"
         d="m 142.04927,9.81411 c 0,0 8.45465,-2.5196 4.08735,-4.3673 -4.3673,-1.84771 -1.95969,2.57559 -4.08735,4.3673 z"
         id="path15" />
      <path
         style="opacity:0.995575;fill:#f82f00"
         d="m 86.731707,71.60976 c 0,0 26.146343,6.2439 48.195123,-17.56098 5.99478,-6.47224 8.22673,-12.15838 9.49706,-17.01331 C 147.82585,24.03398 138.91245,17.87164 136,16.78049 c -2.00608,-0.75158 6.47421,4.56358 6.15212,11.15863 -0.17825,3.64978 -2.92943,9.54046 -7.54467,14.18067 -2.42977,2.44292 -9.16499,6.87149 -12.48863,8.13463 -3.29949,1.25396 -1.42165,1.46128 -3.77736,4.1846 -13.31861,15.39701 -31.609753,17.17074 -31.609753,17.17074 z"
         id="path27" />
      <path
         style="opacity:1;fill:#f82f00"
         d="m 133.56098,37.46341 c 0,0 -2.63415,9.36586 -13.46342,11.02439 -10.82927,1.65854 -19.51219,-6.2439 -17.17073,-19.90243 2.34146,-13.65854 17.17073,-17.17074 23.31707,-15.21952 6.14634,1.95122 2.73171,1.2683 -2.7317,1.85366 -4.68248,0.5017 -14.53659,7.21951 -13.95122,16 0.55266,8.28976 9.65853,16.78049 24,6.2439 z"
         id="path28" />
      <path
         style="opacity:1;fill:#158500;fill-opacity:1"
         d="m 130.90705,14.79731 c 0,0 -5.37514,1.56775 -10.30235,-0.89585 -3.77337,-1.88669 -5.5903,-3.66438 -6.57645,-7.48705 -0.65201,-2.52741 -3.27797,-2.59134 0.75338,-2.92729 4.03136,-0.33594 8.23069,-0.72788 11.98209,1.62374 2.4242,1.51939 4.42033,3.89821 4.68757,5.69758 0.28701,1.9325 0.8665,4.17509 -0.26428,2.02919 -1.39978,-3.35947 -5.9525,-6.04474 -8.51064,-6.271 -2.13765,-0.18907 -4.14334,-0.39194 -0.16798,0.95185 2.26597,0.76596 7.78274,5.03919 8.39864,7.27883 z"
         id="path10" />
      <path
         style="opacity:1;fill:#f82f00;fill-opacity:1"
         d="m 151.06719,43.09881 c 0,0 -7.50988,19.44664 0.86957,21.50198 8.37945,2.05534 10.59288,-2.29249 10.59288,-2.29249 0,0 -4.58498,0.63241 -5.21739,-4.11067 -0.63241,-4.74308 6.56127,-34.22925 8.37945,-34.86166 1.81819,-0.63241 -7.35178,-1.89723 -10.27668,3.24111 -2.9249,5.13834 -1.66008,7.50988 -4.34783,16.52173 z"
         id="path21" />
      <path
         style="opacity:1;fill:#158500;fill-opacity:1"
         d="m 107.30689,79.52401 c 0,0 56.12641,-3.35342 68.68476,-10.22965 12.11041,-6.63096 3.12472,-1.91352 -6.15866,-0.73068 -14.43967,1.83982 -62.5261,10.96033 -62.5261,10.96033 z"
         id="path30" />
    </g>
  </g>
</svg>
