<?xml version="1.0" encoding="UTF-8" standalone="no"?>
<!-- Created with Inkscape (http://www.inkscape.org/) -->

<svg
   version="1.1"
   id="svg1"
   width="67.322815"
   height="70.268188"
   viewBox="0 0 67.322815 70.268188"
   xmlns="http://www.w3.org/2000/svg"
   xmlns:svg="http://www.w3.org/2000/svg">
  <defs
     id="defs1" />
  <g
     id="g1"
     transform="translate(-90.529175,-43.220062)">
    <g
       id="g2"
       transform="translate(3.7974684,41.139242)">
      <g
         id="g3">
        <path
           style="opacity:1;fill:#158500;fill-opacity:1"
           d="m 110.04878,72.09756 c 0,0 22.43902,-3.31708 31.80488,-16.68293 7.81561,-11.15351 8.66903,-23.37656 4.50586,-31.25475 -0.99283,-1.8788 -4.06107,-4.86298 -6.06683,-5.6233 -9.15045,-3.46862 -1.68425,-0.79159 1.75609,3.70732 3.80488,4.97561 4.39025,18.34147 -3.21951,28.58537 -7.60975,10.2439 -21.7561,20.39024 -28.78049,21.26829 z"
           id="path29" />
        <path
           style="opacity:1;fill:#f82f00"
           d="m 124.32735,83.96861 c 0,0 3.02691,-0.672646 0.89687,1.457399 -2.13005,2.130045 -5.26932,4.764888 -5.26932,4.764888 0,0 -2.46536,2.186161 -3.8114,0.616278 -1.8067,-2.107151 -3.02691,-4.147982 -3.02691,-4.147982 0,0 -1.4574,-1.569507 1.00897,-1.569507 2.46637,0 9.19283,-0.560538 10.20179,-1.121076 z"
           id="path1"
           transform="translate(0,-52)" />
        <path
           style="opacity:1;fill:#f82f00"
           d="m 124.74804,28.85106 c -3.97536,-3.30347 -6.49496,-6.71892 -6.49496,-6.71892 0,0 -2.29563,-2.35162 -3.69541,0.67189 -1.39978,3.02352 -2.74356,6.55095 -2.74356,6.55095 0,0 -1.39978,2.07167 1.39978,1.95969 2.79955,-0.11198 15.50952,0.83986 11.53415,-2.46361 z"
           id="path2" />
        <path
           style="opacity:1;fill:#f82f00"
           d="m 124.91602,26.49944 c 0,0 2.68756,4.31131 3.52743,0.11198 0.83986,-4.19933 2.29563,-6.27099 2.29563,-6.27099 0,0 3.1355,-3.35947 -2.01568,-3.47145 -5.15117,-0.11198 -8.56663,1.62374 -8.56663,1.62374 0,0 -2.67857,1.00484 -0.11198,2.96753 2.85555,2.18365 4.87123,5.03919 4.87123,5.03919 z"
           id="path3" />
        <path
           style="opacity:1;fill:#f82f00"
           d="m 129.73124,26.94737 c 0,0 -1.7363,4.0262 1.84771,2.40761 3.47144,-1.56775 6.55095,-1.95968 6.55095,-1.95968 0,0 2.18364,-0.11198 1.28779,-2.35163 -1.22387,-3.0597 -4.81523,-6.10302 -4.81523,-6.10302 0,0 -1.73572,-1.45577 -2.68757,1.45577 -0.95184,2.91153 -2.18365,6.55095 -2.18365,6.55095 z"
           id="path5" />
        <path
           style="opacity:1;fill:#f82f00"
           d="m 131.74693,32.43449 c 0,0 -2.40762,-0.72788 -0.50393,-1.67973 1.9037,-0.95185 5.99104,-2.07167 5.99104,-2.07167 0,0 3.02352,-1.06383 2.35163,1.62374 -0.6719,2.68757 -0.95185,4.64726 -0.95185,4.64726 0,0 -0.0909,2.12906 -2.57559,0.27995 -2.40761,-1.79171 -4.3113,-2.79955 -4.3113,-2.79955 z"
           id="path6" />
        <path
           style="opacity:1;fill:#158500;fill-opacity:1"
           d="m 132.92273,15.46921 c 0,0 -1.00784,2.4636 1.84771,1.11982 2.85554,-1.34379 5.43113,-9.23853 5.43113,-9.23853 0,0 1.28779,-1.95968 -2.01568,-2.57558 -3.30347,-0.6159 -3.47144,-0.33595 -3.47144,-0.33595 0,0 -1.95969,0 -0.89586,1.79171 1.06383,1.79172 -0.27996,8.17469 -0.89586,9.23853 z"
           id="path7" />
        <path
           style="opacity:1;fill:#f82f00"
           d="m 110.58231,11.60582 c 0,0 -1.79172,-0.89585 -2.79956,-1.67973 -0.46981,-0.36541 -2.29563,-1.28779 -2.91153,0.44793 -0.6159,1.73572 2.35162,4.19933 5.71109,1.2318 z"
           id="path11" />
        <path
           style="opacity:1;fill:#f82f00"
           d="m 112.37402,8.80627 c 0,0 -1.17581,-3.07951 -2.46361,-4.92721 -1.28779,-1.8477 -3.24748,-2.29563 -4.31131,-1.2318 -1.06383,1.06383 -1.95968,4.75923 6.77492,6.15901 z"
           id="path12" />
        <path
           style="opacity:1;fill:#f82f00"
           d="m 139.08175,14.29339 c 0,0 4.42329,0.33595 5.03919,-1.8477 0.6159,-2.18365 -3.1355,-1.95969 -5.03919,1.8477 z"
           id="path13" />
        <path
           style="opacity:1;fill:#f82f00"
           d="m 144.4009,15.80515 c 0,0 8.34266,1.62374 9.51847,-2.23964 1.17581,-3.86338 -5.5991,-3.47144 -9.51847,2.23964 z"
           id="path14" />
        <path
           style="opacity:1;fill:#f82f00"
           d="m 142.04927,9.81411 c 0,0 8.45465,-2.5196 4.08735,-4.3673 -4.3673,-1.84771 -1.95969,2.57559 -4.08735,4.3673 z"
           id="path15" />
        <path
           style="opacity:1;fill:#f82f00"
           d="m 86.731707,71.60976 c 0,0 26.146343,6.2439 48.195123,-17.56098 5.99478,-6.47224 8.22673,-12.15838 9.49706,-17.01331 C 147.82585,24.03398 138.91245,17.87164 136,16.78049 c -2.00608,-0.75158 6.47421,4.56358 6.15212,11.15863 -0.17825,3.64978 -2.92943,9.54046 -7.54467,14.18067 -2.42977,2.44292 -9.16499,6.87149 -12.48863,8.13463 -3.29949,1.25396 -1.42165,1.46128 -3.77736,4.1846 -13.31861,15.39701 -31.609753,17.17074 -31.609753,17.17074 z"
           id="path27" />
        <path
           style="opacity:1;fill:#f82f00"
           d="m 133.56098,37.46341 c 0,0 -2.63415,9.36586 -13.46342,11.02439 -10.82927,1.65854 -19.51219,-6.2439 -17.17073,-19.90243 2.34146,-13.65854 17.17073,-17.17074 23.31707,-15.21952 6.14634,1.95122 2.73171,1.2683 -2.7317,1.85366 -4.68248,0.5017 -14.53659,7.21951 -13.95122,16 0.55266,8.28976 9.65853,16.78049 24,6.2439 z"
           id="path28" />
        <path
           style="opacity:1;fill:#158500;fill-opacity:1"
           d="m 130.90705,14.79731 c 0,0 -5.37514,1.56775 -10.30235,-0.89585 -3.77337,-1.88669 -5.5903,-3.66438 -6.57645,-7.48705 -0.65201,-2.52741 -3.27797,-2.59134 0.75338,-2.92729 4.03136,-0.33594 8.23069,-0.72788 11.98209,1.62374 2.4242,1.51939 4.42033,3.89821 4.68757,5.69758 0.28701,1.9325 0.8665,4.17509 -0.26428,2.02919 -1.39978,-3.35947 -5.9525,-6.04474 -8.51064,-6.271 -2.13765,-0.18907 -4.14334,-0.39194 -0.16798,0.95185 2.26597,0.76596 7.78274,5.03919 8.39864,7.27883 z"
           id="path10" />
      </g>
    </g>
  </g>
</svg>
